<svg xmlns="http://www.w3.org/2000/svg" viewBox="0 0 1000 300" width="1000" height="300">
<defs>
  <linearGradient id="title" x1="0" y1="0" x2="1" y2="0.4">
    <stop offset="0" stop-color="#f1eaef"/><stop offset="0.45" stop-color="#f48fb1"/>
    <stop offset="0.72" stop-color="#d76a93"/><stop offset="1" stop-color="#e8a86a"/>
  </linearGradient>
  <linearGradient id="rosefade" x1="0" y1="0" x2="1" y2="0">
    <stop offset="0" stop-color="#f48fb1" stop-opacity="0"/><stop offset="1" stop-color="#f48fb1"/>
  </linearGradient>
  <linearGradient id="petal" x1="0" y1="0" x2="1" y2="1">
    <stop offset="0" stop-color="#fcdfe8"/><stop offset="1" stop-color="#f48fb1"/>
  </linearGradient>
  <linearGradient id="petal2" x1="0" y1="0" x2="1" y2="1">
    <stop offset="0" stop-color="#f48fb1"/><stop offset="1" stop-color="#d76a93"/>
  </linearGradient>
  <radialGradient id="glowR" cx="0.5" cy="0.5" r="0.5">
    <stop offset="0" stop-color="#f48fb1" stop-opacity="0.18"/><stop offset="1" stop-color="#f48fb1" stop-opacity="0"/>
  </radialGradient>
  <radialGradient id="glowW" cx="0.5" cy="0.5" r="0.5">
    <stop offset="0" stop-color="#b69ce0" stop-opacity="0.16"/><stop offset="1" stop-color="#b69ce0" stop-opacity="0"/>
  </radialGradient>
  
</defs>
<style>.pf{animation-name:fall;animation-timing-function:linear;animation-iteration-count:infinite}
    @keyframes fall{
      0%{transform:translate(0,-20px) rotate(0deg);opacity:0}
      12%{opacity:.7}
      88%{opacity:.7}
      100%{transform:translate(var(--dx,18px),324px) rotate(var(--rot,320deg));opacity:0}
    }</style>
<rect x="0" y="0" width="1000" height="300" rx="20" fill="#15111a" stroke="#2f2636" stroke-width="1"/>
<g clip-path="url(#qclip)"><defs><clipPath id="qclip"><rect width="1000" height="300" rx="20"/></clipPath></defs><ellipse cx="500" cy="-20" rx="520" ry="220" fill="url(#glowR)"/><text x="60" y="280" font-family="'Yu Mincho','Hiragino Mincho ProN','Zen Old Mincho','Songti SC',serif" font-size="190" fill="#b69ce0" fill-opacity="0.05">言</text><g opacity="0.5"><g class="pf" style="animation-duration:12.0s;animation-delay:-9.0s;--dx:-16px;--rot:280deg" transform="translate(32.9,0)"><path d="M6.5,0 C11,3 11.5,10 6.5,15 C1.5,10 2,3 6.5,0 Z" fill="url(#petal)" fill-opacity="0.3" transform="scale(0.55)"/></g>
<g class="pf" style="animation-duration:13.9s;animation-delay:-10.6s;--dx:24px;--rot:320deg" transform="translate(42.6,0)"><path d="M6.5,0 C11,3 11.5,10 6.5,15 C1.5,10 2,3 6.5,0 Z" fill="url(#petal)" fill-opacity="0.46" transform="scale(0.77)"/></g>
<g class="pf" style="animation-duration:15.8s;animation-delay:-12.2s;--dx:-4px;--rot:360deg" transform="translate(52.3,0)"><path d="M6.5,0 C11,3 11.5,10 6.5,15 C1.5,10 2,3 6.5,0 Z" fill="url(#petal)" fill-opacity="0.62" transform="scale(0.99)"/></g>
<g class="pf" style="animation-duration:17.7s;animation-delay:-13.8s;--dx:18px;--rot:400deg" transform="translate(62.0,0)"><path d="M6.5,0 C11,3 11.5,10 6.5,15 C1.5,10 2,3 6.5,0 Z" fill="url(#petal)" fill-opacity="0.3" transform="scale(1.21)"/></g>
<g class="pf" style="animation-duration:19.6s;animation-delay:-15.4s;--dx:-10px;--rot:280deg" transform="translate(71.7,0)"><path d="M6.5,0 C11,3 11.5,10 6.5,15 C1.5,10 2,3 6.5,0 Z" fill="url(#petal)" fill-opacity="0.46" transform="scale(0.55)"/></g>
<g class="pf" style="animation-duration:12.0s;animation-delay:-17.0s;--dx:30px;--rot:320deg" transform="translate(81.4,0)"><path d="M6.5,0 C11,3 11.5,10 6.5,15 C1.5,10 2,3 6.5,0 Z" fill="url(#petal)" fill-opacity="0.62" transform="scale(0.77)"/></g></g></g>
<text x="500" y="40" font-family="'Yu Mincho','Hiragino Mincho ProN','Zen Old Mincho','Songti SC',serif" font-size="30" fill="#f48fb1" text-anchor="middle">言</text>
<text x="500" y="84" font-family="'Yu Mincho','Hiragino Mincho ProN','Zen Old Mincho','Songti SC',serif" font-size="38" font-weight="700" fill="#f1eaef" text-anchor="middle">Word of the Day</text>
<text x="500" y="106" font-family="'Cascadia Code','Consolas','SFMono-Regular',ui-monospace,monospace" font-size="12" letter-spacing="4" fill="#a99fb0" text-anchor="middle">KOTOBA</text>
<g transform="translate(500,124)">
  <rect x="-110" y="0" width="90" height="1.4" fill="url(#rosefade)"/>
  <rect x="-4" y="-4" width="9" height="9" rx="1.5" transform="rotate(45 0 0)" fill="#f48fb1"/>
  <rect x="20" y="0" width="90" height="1.4" fill="url(#rosefade)" transform="scale(-1,1)"/>
</g>
<text x="500" y="196" font-family="'Yu Mincho','Hiragino Mincho ProN','Zen Old Mincho','Songti SC',serif" font-size="40" font-weight="700" fill="#f1eaef" text-anchor="middle">雨降って地固まる</text>
<text x="500" y="226" font-family="'Cascadia Code','Consolas','SFMono-Regular',ui-monospace,monospace" font-size="14" font-style="italic" fill="#e8a86a" text-anchor="middle">Ame futte ji katamaru</text>
<text x="500" y="256" font-family="'Yu Gothic','Hiragino Kaku Gothic ProN','Zen Kaku Gothic New',system-ui,sans-serif" font-size="15" fill="#a99fb0" text-anchor="middle">After the rain, the ground hardens.</text>
<text x="40" y="290" font-family="'Cascadia Code','Consolas','SFMono-Regular',ui-monospace,monospace" font-size="10.5" letter-spacing="1" fill="#a99fb0" fill-opacity="0.5">ことわざ</text>
<text x="960" y="290" font-family="'Cascadia Code','Consolas','SFMono-Regular',ui-monospace,monospace" font-size="10.5" letter-spacing="1" fill="#a99fb0" fill-opacity="0.5" text-anchor="end">2026-07-11 · refreshed daily</text>
</svg>