<svg xmlns="http://www.w3.org/2000/svg" viewBox="0 0 1000 360" width="1000" height="360">
<defs>
  <linearGradient id="title" x1="0" y1="0" x2="1" y2="0.4">
    <stop offset="0" stop-color="#f1eaef"/><stop offset="0.45" stop-color="#f48fb1"/>
    <stop offset="0.72" stop-color="#d76a93"/><stop offset="1" stop-color="#e8a86a"/>
  </linearGradient>
  <linearGradient id="rosefade" x1="0" y1="0" x2="1" y2="0">
    <stop offset="0" stop-color="#f48fb1" stop-opacity="0"/><stop offset="1" stop-color="#f48fb1"/>
  </linearGradient>
  <linearGradient id="petal" x1="0" y1="0" x2="1" y2="1">
    <stop offset="0" stop-color="#fcdfe8"/><stop offset="1" stop-color="#f48fb1"/>
  </linearGradient>
  <linearGradient id="petal2" x1="0" y1="0" x2="1" y2="1">
    <stop offset="0" stop-color="#f48fb1"/><stop offset="1" stop-color="#d76a93"/>
  </linearGradient>
  <radialGradient id="glowR" cx="0.5" cy="0.5" r="0.5">
    <stop offset="0" stop-color="#f48fb1" stop-opacity="0.18"/><stop offset="1" stop-color="#f48fb1" stop-opacity="0"/>
  </radialGradient>
  <radialGradient id="glowW" cx="0.5" cy="0.5" r="0.5">
    <stop offset="0" stop-color="#b69ce0" stop-opacity="0.16"/><stop offset="1" stop-color="#b69ce0" stop-opacity="0"/>
  </radialGradient>
  
</defs>
<style>.eq span{}
    .b{animation:eq 0.9s ease-in-out infinite;transform-box:fill-box;transform-origin:bottom}
    @keyframes eq{0%,100%{transform:scaleY(0.3)}50%{transform:scaleY(1)}}</style>
<text x="500" y="40" font-family="'Yu Mincho','Hiragino Mincho ProN','Zen Old Mincho','Songti SC',serif" font-size="30" fill="#f48fb1" text-anchor="middle">音</text>
<text x="500" y="84" font-family="'Yu Mincho','Hiragino Mincho ProN','Zen Old Mincho','Songti SC',serif" font-size="38" font-weight="700" fill="#f1eaef" text-anchor="middle">Crow Radio</text>
<text x="500" y="106" font-family="'Cascadia Code','Consolas','SFMono-Regular',ui-monospace,monospace" font-size="12" letter-spacing="4" fill="#a99fb0" text-anchor="middle">NOW PLAYING</text>
<g transform="translate(500,124)">
  <rect x="-110" y="0" width="90" height="1.4" fill="url(#rosefade)"/>
  <rect x="-4" y="-4" width="9" height="9" rx="1.5" transform="rotate(45 0 0)" fill="#f48fb1"/>
  <rect x="20" y="0" width="90" height="1.4" fill="url(#rosefade)" transform="scale(-1,1)"/>
</g>
<rect x="0" y="148" width="1000" height="200" rx="18" fill="#1d1622" stroke="#2f2636" stroke-width="1"/>
<defs><clipPath id="art"><rect x="40" y="186" width="120" height="120" rx="14"/></clipPath></defs>
<rect x="40" y="186" width="120" height="120" rx="14" fill="#0c0a0d" stroke="#2f2636"/>
<g clip-path="url(#art)"><ellipse cx="100" cy="200" rx="90" ry="70" fill="url(#glowR)"/><text x="100" y="280" font-family="'Yu Mincho','Hiragino Mincho ProN','Zen Old Mincho','Songti SC',serif" font-size="92" fill="#f48fb1" fill-opacity="0.85" text-anchor="middle">音</text></g>
<text x="190" y="206" font-family="'Cascadia Code','Consolas','SFMono-Regular',ui-monospace,monospace" font-size="11" letter-spacing="2" fill="#8fc07a">CROW RADIO · NOW PLAYING — click to play on Spotify</text>
<text x="190" y="240" font-family="'Yu Mincho','Hiragino Mincho ProN','Zen Old Mincho','Songti SC',serif" font-size="26" font-weight="700" fill="#f1eaef">Gurenge</text>
<text x="190" y="264" font-family="'Yu Gothic','Hiragino Kaku Gothic ProN','Zen Kaku Gothic New',system-ui,sans-serif" font-size="14" fill="#a99fb0">LiSA · Demon Slayer OST</text>
<rect x="190" y="284" width="600" height="6" rx="3" fill="#2f2636"/>
<rect x="190" y="284" width="252" height="6" rx="3" fill="url(#petal2)"/>
<g transform="translate(890,256)">
<rect class="b" style="animation-delay:0s" x="0" y="-20" width="5" height="40" rx="2.5" fill="#f48fb1"/>
<rect class="b" style="animation-delay:0.15s" x="11" y="-35" width="5" height="70" rx="2.5" fill="#f48fb1"/>
<rect class="b" style="animation-delay:0.3s" x="22" y="-25" width="5" height="50" rx="2.5" fill="#e8a86a"/>
<rect class="b" style="animation-delay:0.45s" x="33" y="-42" width="5" height="85" rx="2.5" fill="#f48fb1"/>
<rect class="b" style="animation-delay:0.6s" x="44" y="-18" width="5" height="35" rx="2.5" fill="#b69ce0"/>
<rect class="b" style="animation-delay:0.75s" x="55" y="-30" width="5" height="60" rx="2.5" fill="#f48fb1"/>
<rect class="b" style="animation-delay:0.9s" x="66" y="-22" width="5" height="45" rx="2.5" fill="#e8a86a"/>
</g>
</svg>