<svg xmlns="http://www.w3.org/2000/svg" viewBox="0 0 1000 720" width="1000" height="720">
<defs>
  <linearGradient id="title" x1="0" y1="0" x2="1" y2="0.4">
    <stop offset="0" stop-color="#f1eaef"/><stop offset="0.45" stop-color="#f48fb1"/>
    <stop offset="0.72" stop-color="#d76a93"/><stop offset="1" stop-color="#e8a86a"/>
  </linearGradient>
  <linearGradient id="rosefade" x1="0" y1="0" x2="1" y2="0">
    <stop offset="0" stop-color="#f48fb1" stop-opacity="0"/><stop offset="1" stop-color="#f48fb1"/>
  </linearGradient>
  <linearGradient id="petal" x1="0" y1="0" x2="1" y2="1">
    <stop offset="0" stop-color="#fcdfe8"/><stop offset="1" stop-color="#f48fb1"/>
  </linearGradient>
  <linearGradient id="petal2" x1="0" y1="0" x2="1" y2="1">
    <stop offset="0" stop-color="#f48fb1"/><stop offset="1" stop-color="#d76a93"/>
  </linearGradient>
  <radialGradient id="glowR" cx="0.5" cy="0.5" r="0.5">
    <stop offset="0" stop-color="#f48fb1" stop-opacity="0.18"/><stop offset="1" stop-color="#f48fb1" stop-opacity="0"/>
  </radialGradient>
  <radialGradient id="glowW" cx="0.5" cy="0.5" r="0.5">
    <stop offset="0" stop-color="#b69ce0" stop-opacity="0.16"/><stop offset="1" stop-color="#b69ce0" stop-opacity="0"/>
  </radialGradient>
  <linearGradient id="actFill" x1="0" y1="0" x2="0" y2="1">
      <stop offset="0" stop-color="#f48fb1" stop-opacity="0.42"/><stop offset="1" stop-color="#f48fb1" stop-opacity="0"/></linearGradient>
    <linearGradient id="actLine" x1="0" y1="0" x2="1" y2="0">
      <stop offset="0" stop-color="#b69ce0"/><stop offset="0.55" stop-color="#f48fb1"/><stop offset="1" stop-color="#e8a86a"/></linearGradient>
</defs>
<style>.flame{animation:flick 1.6s ease-in-out infinite;transform-box:fill-box;transform-origin:center}
    @keyframes flick{0%,100%{transform:scale(1) rotate(-2deg);opacity:1}50%{transform:scale(1.12) rotate(2deg);opacity:.85}}
    .draw{stroke-dasharray:2600;stroke-dashoffset:2600;animation:draw 3.2s ease-out forwards}
    @keyframes draw{to{stroke-dashoffset:0}}</style>
<text x="500" y="40" font-family="'Yu Mincho','Hiragino Mincho ProN','Zen Old Mincho','Songti SC',serif" font-size="30" fill="#f48fb1" text-anchor="middle">脈</text>
<text x="500" y="84" font-family="'Yu Mincho','Hiragino Mincho ProN','Zen Old Mincho','Songti SC',serif" font-size="38" font-weight="700" fill="#f1eaef" text-anchor="middle">Telemetry</text>
<text x="500" y="106" font-family="'Cascadia Code','Consolas','SFMono-Regular',ui-monospace,monospace" font-size="12" letter-spacing="4" fill="#a99fb0" text-anchor="middle">LIVE GITHUB DATA</text>
<g transform="translate(500,124)">
  <rect x="-110" y="0" width="90" height="1.4" fill="url(#rosefade)"/>
  <rect x="-4" y="-4" width="9" height="9" rx="1.5" transform="rotate(45 0 0)" fill="#f48fb1"/>
  <rect x="20" y="0" width="90" height="1.4" fill="url(#rosefade)" transform="scale(-1,1)"/>
</g>
<rect x="0" y="148" width="600" height="180" rx="16" fill="#15111a" stroke="#2f2636" stroke-width="1"/>
<text x="34" y="186" font-family="'Yu Mincho','Hiragino Mincho ProN','Zen Old Mincho','Songti SC',serif" font-size="18" font-weight="600" fill="#f48fb1">Dearie’s GitHub Stats</text>
<circle cx="556" cy="180" r="22" fill="none" stroke="#2f2636" stroke-width="4"/>
<circle cx="556" cy="180" r="22" fill="none" stroke="#f48fb1" stroke-width="4" stroke-dasharray="122 138" transform="rotate(-90 556 180)" stroke-linecap="round"/>
<text x="556" y="185" font-family="'Cascadia Code','Consolas','SFMono-Regular',ui-monospace,monospace" font-size="14" font-weight="700" fill="#f48fb1" text-anchor="middle">A+</text>
<text x="34" y="224" font-family="'Yu Gothic','Hiragino Kaku Gothic ProN','Zen Kaku Gothic New',system-ui,sans-serif" font-size="13" fill="#a99fb0">Total Stars</text>
<text x="286" y="224" font-family="'Cascadia Code','Consolas','SFMono-Regular',ui-monospace,monospace" font-size="14" font-weight="700" fill="#f1eaef" text-anchor="end">2.6k</text>
<rect x="34" y="231" width="252" height="1" fill="#2f2636" stroke-dasharray="3 3"/>
<text x="320" y="224" font-family="'Yu Gothic','Hiragino Kaku Gothic ProN','Zen Kaku Gothic New',system-ui,sans-serif" font-size="13" fill="#a99fb0">Commits (2026)</text>
<text x="572" y="224" font-family="'Cascadia Code','Consolas','SFMono-Regular',ui-monospace,monospace" font-size="14" font-weight="700" fill="#f1eaef" text-anchor="end">1,284</text>
<rect x="320" y="231" width="252" height="1" fill="#2f2636" stroke-dasharray="3 3"/>
<text x="34" y="258" font-family="'Yu Gothic','Hiragino Kaku Gothic ProN','Zen Kaku Gothic New',system-ui,sans-serif" font-size="13" fill="#a99fb0">Pull Requests</text>
<text x="286" y="258" font-family="'Cascadia Code','Consolas','SFMono-Regular',ui-monospace,monospace" font-size="14" font-weight="700" fill="#f1eaef" text-anchor="end">312</text>
<rect x="34" y="265" width="252" height="1" fill="#2f2636" stroke-dasharray="3 3"/>
<text x="320" y="258" font-family="'Yu Gothic','Hiragino Kaku Gothic ProN','Zen Kaku Gothic New',system-ui,sans-serif" font-size="13" fill="#a99fb0">Issues Closed</text>
<text x="572" y="258" font-family="'Cascadia Code','Consolas','SFMono-Regular',ui-monospace,monospace" font-size="14" font-weight="700" fill="#f1eaef" text-anchor="end">148</text>
<rect x="320" y="265" width="252" height="1" fill="#2f2636" stroke-dasharray="3 3"/>
<text x="34" y="292" font-family="'Yu Gothic','Hiragino Kaku Gothic ProN','Zen Kaku Gothic New',system-ui,sans-serif" font-size="13" fill="#a99fb0">Contributed to</text>
<text x="286" y="292" font-family="'Cascadia Code','Consolas','SFMono-Regular',ui-monospace,monospace" font-size="14" font-weight="700" fill="#f1eaef" text-anchor="end">27</text>
<rect x="34" y="299" width="252" height="1" fill="#2f2636" stroke-dasharray="3 3"/>
<text x="320" y="292" font-family="'Yu Gothic','Hiragino Kaku Gothic ProN','Zen Kaku Gothic New',system-ui,sans-serif" font-size="13" fill="#a99fb0">Reviews</text>
<text x="572" y="292" font-family="'Cascadia Code','Consolas','SFMono-Regular',ui-monospace,monospace" font-size="14" font-weight="700" fill="#f1eaef" text-anchor="end">410</text>
<rect x="320" y="299" width="252" height="1" fill="#2f2636" stroke-dasharray="3 3"/>
<rect x="626" y="148" width="374" height="180" rx="16" fill="#15111a" stroke="#2f2636" stroke-width="1"/>
<text x="813" y="180" font-family="'Cascadia Code','Consolas','SFMono-Regular',ui-monospace,monospace" font-size="11" letter-spacing="2" fill="#a99fb0" text-anchor="middle">CURRENT STREAK</text>
<text class="flame" x="813" y="236" font-family="'Yu Mincho','Hiragino Mincho ProN','Zen Old Mincho','Songti SC',serif" font-size="58" fill="#e8a86a" text-anchor="middle">火</text>
<circle cx="813" cy="216" r="40" fill="none" stroke="#e8a86a" stroke-width="2" stroke-opacity="0.6"/>
<text x="813" y="286" font-family="'Cascadia Code','Consolas','SFMono-Regular',ui-monospace,monospace" font-size="30" font-weight="700" fill="#e8a86a" text-anchor="middle">47</text>
<text x="813" y="308" font-family="'Yu Gothic','Hiragino Kaku Gothic ProN','Zen Kaku Gothic New',system-ui,sans-serif" font-size="12" fill="#a99fb0" text-anchor="middle">days · longest 96</text>
<rect x="0" y="352" width="1000" height="150" rx="16" fill="#15111a" stroke="#2f2636" stroke-width="1"/>
<text x="34" y="388" font-family="'Yu Mincho','Hiragino Mincho ProN','Zen Old Mincho','Songti SC',serif" font-size="18" font-weight="600" fill="#f48fb1">Most Used Breathing — Top Languages</text>
<clipPath id="bar"><rect x="34" y="404" width="932" height="12" rx="6"/></clipPath>
<rect x="34.0" y="404" width="316.9" height="12" fill="#56a8e8" clip-path="url(#bar)"/>
<rect x="350.9" y="404" width="223.7" height="12" fill="#b69ce0" clip-path="url(#bar)"/>
<rect x="574.6" y="404" width="167.8" height="12" fill="#3fc7d8" clip-path="url(#bar)"/>
<rect x="742.3" y="404" width="130.5" height="12" fill="#e8a86a" clip-path="url(#bar)"/>
<rect x="872.8" y="404" width="93.2" height="12" fill="#8fc07a" clip-path="url(#bar)"/>
<circle cx="39" cy="444" r="5.5" fill="#56a8e8"/>
<text x="52" y="448" font-family="'Yu Gothic','Hiragino Kaku Gothic ProN','Zen Kaku Gothic New',system-ui,sans-serif" font-size="13" fill="#f1eaef">TypeScript</text>
<text x="334" y="448" font-family="'Cascadia Code','Consolas','SFMono-Regular',ui-monospace,monospace" font-size="12" fill="#a99fb0" text-anchor="end">34%</text>
<circle cx="369" cy="444" r="5.5" fill="#b69ce0"/>
<text x="382" y="448" font-family="'Yu Gothic','Hiragino Kaku Gothic ProN','Zen Kaku Gothic New',system-ui,sans-serif" font-size="13" fill="#f1eaef">Python</text>
<text x="664" y="448" font-family="'Cascadia Code','Consolas','SFMono-Regular',ui-monospace,monospace" font-size="12" fill="#a99fb0" text-anchor="end">24%</text>
<circle cx="699" cy="444" r="5.5" fill="#3fc7d8"/>
<text x="712" y="448" font-family="'Yu Gothic','Hiragino Kaku Gothic ProN','Zen Kaku Gothic New',system-ui,sans-serif" font-size="13" fill="#f1eaef">Go</text>
<text x="994" y="448" font-family="'Cascadia Code','Consolas','SFMono-Regular',ui-monospace,monospace" font-size="12" fill="#a99fb0" text-anchor="end">18%</text>
<circle cx="39" cy="470" r="5.5" fill="#e8a86a"/>
<text x="52" y="474" font-family="'Yu Gothic','Hiragino Kaku Gothic ProN','Zen Kaku Gothic New',system-ui,sans-serif" font-size="13" fill="#f1eaef">Rust</text>
<text x="334" y="474" font-family="'Cascadia Code','Consolas','SFMono-Regular',ui-monospace,monospace" font-size="12" fill="#a99fb0" text-anchor="end">14%</text>
<circle cx="369" cy="470" r="5.5" fill="#8fc07a"/>
<text x="382" y="474" font-family="'Yu Gothic','Hiragino Kaku Gothic ProN','Zen Kaku Gothic New',system-ui,sans-serif" font-size="13" fill="#f1eaef">Other</text>
<text x="664" y="474" font-family="'Cascadia Code','Consolas','SFMono-Regular',ui-monospace,monospace" font-size="12" fill="#a99fb0" text-anchor="end">10%</text>
<rect x="0" y="526" width="1000" height="180" rx="16" fill="#15111a" stroke="#2f2636" stroke-width="1"/>
<text x="34" y="562" font-family="'Yu Mincho','Hiragino Mincho ProN','Zen Old Mincho','Songti SC',serif" font-size="18" font-weight="600" fill="#f48fb1">Contribution Activity</text>
<g transform="translate(40,556)"><path d="M 10.0 94.9 Q 10.0 94.9 28.0 84.0 T 46.0 73.1 Q 46.0 73.1 64.0 65.0 T 82.0 56.9 Q 82.0 56.9 100.0 53.6 T 118.0 50.2 Q 118.0 50.2 136.0 52.3 T 154.0 54.3 Q 154.0 54.3 172.0 60.8 T 190.0 67.2 Q 190.0 67.2 208.0 70.1 T 226.0 73.0 Q 226.0 73.0 244.0 63.0 T 262.0 53.1 Q 262.0 53.1 280.0 46.8 T 298.0 40.4 Q 298.0 40.4 316.0 39.3 T 334.0 38.1 Q 334.0 38.1 352.0 42.3 T 370.0 46.5 Q 370.0 46.5 388.0 54.6 T 406.0 62.6 Q 406.0 62.6 424.0 60.8 T 442.0 59.0 Q 442.0 59.0 460.0 50.7 T 478.0 42.3 Q 478.0 42.3 496.0 38.2 T 514.0 34.0 Q 514.0 34.0 532.0 35.2 T 550.0 36.4 Q 550.0 36.4 568.0 42.7 T 586.0 48.9 Q 586.0 48.9 604.0 58.3 T 622.0 67.7 Q 622.0 67.7 640.0 61.1 T 658.0 54.4 Q 658.0 54.4 676.0 47.6 T 694.0 40.7 Q 694.0 40.7 712.0 38.1 T 730.0 35.6 Q 730.0 35.6 748.0 36.8 T 766.0 38.0 Q 766.0 38.0 784.0 43.8 T 802.0 49.6 Q 802.0 49.6 820.0 54.8 T 838.0 60.0 Q 838.0 60.0 856.0 49.5 T 874.0 38.9 Q 874.0 38.9 892.0 32.1 T 910.0 25.2 L 910.0 140 L 10.0 140 Z" fill="url(#actFill)"/><path class="draw" d="M 10.0 94.9 Q 10.0 94.9 28.0 84.0 T 46.0 73.1 Q 46.0 73.1 64.0 65.0 T 82.0 56.9 Q 82.0 56.9 100.0 53.6 T 118.0 50.2 Q 118.0 50.2 136.0 52.3 T 154.0 54.3 Q 154.0 54.3 172.0 60.8 T 190.0 67.2 Q 190.0 67.2 208.0 70.1 T 226.0 73.0 Q 226.0 73.0 244.0 63.0 T 262.0 53.1 Q 262.0 53.1 280.0 46.8 T 298.0 40.4 Q 298.0 40.4 316.0 39.3 T 334.0 38.1 Q 334.0 38.1 352.0 42.3 T 370.0 46.5 Q 370.0 46.5 388.0 54.6 T 406.0 62.6 Q 406.0 62.6 424.0 60.8 T 442.0 59.0 Q 442.0 59.0 460.0 50.7 T 478.0 42.3 Q 478.0 42.3 496.0 38.2 T 514.0 34.0 Q 514.0 34.0 532.0 35.2 T 550.0 36.4 Q 550.0 36.4 568.0 42.7 T 586.0 48.9 Q 586.0 48.9 604.0 58.3 T 622.0 67.7 Q 622.0 67.7 640.0 61.1 T 658.0 54.4 Q 658.0 54.4 676.0 47.6 T 694.0 40.7 Q 694.0 40.7 712.0 38.1 T 730.0 35.6 Q 730.0 35.6 748.0 36.8 T 766.0 38.0 Q 766.0 38.0 784.0 43.8 T 802.0 49.6 Q 802.0 49.6 820.0 54.8 T 838.0 60.0 Q 838.0 60.0 856.0 49.5 T 874.0 38.9 Q 874.0 38.9 892.0 32.1 T 910.0 25.2" fill="none" stroke="url(#actLine)" stroke-width="2.5" stroke-linejoin="round" stroke-linecap="round"/></g>
</svg>