<svg xmlns="http://www.w3.org/2000/svg" viewBox="0 0 1000 720" width="1000" height="720">
<defs>
  <linearGradient id="title" x1="0" y1="0" x2="1" y2="0.4">
    <stop offset="0" stop-color="#f1eaef"/><stop offset="0.45" stop-color="#f48fb1"/>
    <stop offset="0.72" stop-color="#d76a93"/><stop offset="1" stop-color="#e8a86a"/>
  </linearGradient>
  <linearGradient id="rosefade" x1="0" y1="0" x2="1" y2="0">
    <stop offset="0" stop-color="#f48fb1" stop-opacity="0"/><stop offset="1" stop-color="#f48fb1"/>
  </linearGradient>
  <linearGradient id="petal" x1="0" y1="0" x2="1" y2="1">
    <stop offset="0" stop-color="#fcdfe8"/><stop offset="1" stop-color="#f48fb1"/>
  </linearGradient>
  <linearGradient id="petal2" x1="0" y1="0" x2="1" y2="1">
    <stop offset="0" stop-color="#f48fb1"/><stop offset="1" stop-color="#d76a93"/>
  </linearGradient>
  <radialGradient id="glowR" cx="0.5" cy="0.5" r="0.5">
    <stop offset="0" stop-color="#f48fb1" stop-opacity="0.18"/><stop offset="1" stop-color="#f48fb1" stop-opacity="0"/>
  </radialGradient>
  <radialGradient id="glowW" cx="0.5" cy="0.5" r="0.5">
    <stop offset="0" stop-color="#b69ce0" stop-opacity="0.16"/><stop offset="1" stop-color="#b69ce0" stop-opacity="0"/>
  </radialGradient>
  <linearGradient id="actFill" x1="0" y1="0" x2="0" y2="1">
      <stop offset="0" stop-color="#f48fb1" stop-opacity="0.42"/><stop offset="1" stop-color="#f48fb1" stop-opacity="0"/></linearGradient>
    <linearGradient id="actLine" x1="0" y1="0" x2="1" y2="0">
      <stop offset="0" stop-color="#b69ce0"/><stop offset="0.55" stop-color="#f48fb1"/><stop offset="1" stop-color="#e8a86a"/></linearGradient>
</defs>
<style>.flame{animation:flick 1.6s ease-in-out infinite;transform-box:fill-box;transform-origin:center}
    @keyframes flick{0%,100%{transform:scale(1) rotate(-2deg);opacity:1}50%{transform:scale(1.12) rotate(2deg);opacity:.85}}
    .draw{stroke-dasharray:2600;stroke-dashoffset:2600;animation:draw 3.2s ease-out forwards}
    @keyframes draw{to{stroke-dashoffset:0}}</style>
<text x="500" y="40" font-family="'Yu Mincho','Hiragino Mincho ProN','Zen Old Mincho','Songti SC',serif" font-size="30" fill="#f48fb1" text-anchor="middle">脈</text>
<text x="500" y="84" font-family="'Yu Mincho','Hiragino Mincho ProN','Zen Old Mincho','Songti SC',serif" font-size="38" font-weight="700" fill="#f1eaef" text-anchor="middle">Telemetry</text>
<text x="500" y="106" font-family="'Cascadia Code','Consolas','SFMono-Regular',ui-monospace,monospace" font-size="12" letter-spacing="4" fill="#a99fb0" text-anchor="middle">LIVE GITHUB DATA</text>
<g transform="translate(500,124)">
  <rect x="-110" y="0" width="90" height="1.4" fill="url(#rosefade)"/>
  <rect x="-4" y="-4" width="9" height="9" rx="1.5" transform="rotate(45 0 0)" fill="#f48fb1"/>
  <rect x="20" y="0" width="90" height="1.4" fill="url(#rosefade)" transform="scale(-1,1)"/>
</g>
<rect x="0" y="148" width="600" height="180" rx="16" fill="#15111a" stroke="#2f2636" stroke-width="1"/>
<text x="34" y="186" font-family="'Yu Mincho','Hiragino Mincho ProN','Zen Old Mincho','Songti SC',serif" font-size="18" font-weight="600" fill="#f48fb1">Dearie’s GitHub Stats</text>
<circle cx="556" cy="180" r="22" fill="none" stroke="#2f2636" stroke-width="4"/>
<circle cx="556" cy="180" r="22" fill="none" stroke="#f48fb1" stroke-width="4" stroke-dasharray="122 138" transform="rotate(-90 556 180)" stroke-linecap="round"/>
<text x="556" y="185" font-family="'Cascadia Code','Consolas','SFMono-Regular',ui-monospace,monospace" font-size="14" font-weight="700" fill="#f48fb1" text-anchor="middle">A+</text>
<text x="34" y="224" font-family="'Yu Gothic','Hiragino Kaku Gothic ProN','Zen Kaku Gothic New',system-ui,sans-serif" font-size="13" fill="#a99fb0">Total Stars</text>
<text x="286" y="224" font-family="'Cascadia Code','Consolas','SFMono-Regular',ui-monospace,monospace" font-size="14" font-weight="700" fill="#f1eaef" text-anchor="end">5</text>
<rect x="34" y="231" width="252" height="1" fill="#2f2636" stroke-dasharray="3 3"/>
<text x="320" y="224" font-family="'Yu Gothic','Hiragino Kaku Gothic ProN','Zen Kaku Gothic New',system-ui,sans-serif" font-size="13" fill="#a99fb0">Commits (1y)</text>
<text x="572" y="224" font-family="'Cascadia Code','Consolas','SFMono-Regular',ui-monospace,monospace" font-size="14" font-weight="700" fill="#f1eaef" text-anchor="end">811</text>
<rect x="320" y="231" width="252" height="1" fill="#2f2636" stroke-dasharray="3 3"/>
<text x="34" y="258" font-family="'Yu Gothic','Hiragino Kaku Gothic ProN','Zen Kaku Gothic New',system-ui,sans-serif" font-size="13" fill="#a99fb0">Pull Requests</text>
<text x="286" y="258" font-family="'Cascadia Code','Consolas','SFMono-Regular',ui-monospace,monospace" font-size="14" font-weight="700" fill="#f1eaef" text-anchor="end">46</text>
<rect x="34" y="265" width="252" height="1" fill="#2f2636" stroke-dasharray="3 3"/>
<text x="320" y="258" font-family="'Yu Gothic','Hiragino Kaku Gothic ProN','Zen Kaku Gothic New',system-ui,sans-serif" font-size="13" fill="#a99fb0">Issues</text>
<text x="572" y="258" font-family="'Cascadia Code','Consolas','SFMono-Regular',ui-monospace,monospace" font-size="14" font-weight="700" fill="#f1eaef" text-anchor="end">99</text>
<rect x="320" y="265" width="252" height="1" fill="#2f2636" stroke-dasharray="3 3"/>
<text x="34" y="292" font-family="'Yu Gothic','Hiragino Kaku Gothic ProN','Zen Kaku Gothic New',system-ui,sans-serif" font-size="13" fill="#a99fb0">Contributed to</text>
<text x="286" y="292" font-family="'Cascadia Code','Consolas','SFMono-Regular',ui-monospace,monospace" font-size="14" font-weight="700" fill="#f1eaef" text-anchor="end">21</text>
<rect x="34" y="299" width="252" height="1" fill="#2f2636" stroke-dasharray="3 3"/>
<text x="320" y="292" font-family="'Yu Gothic','Hiragino Kaku Gothic ProN','Zen Kaku Gothic New',system-ui,sans-serif" font-size="13" fill="#a99fb0">Reviews</text>
<text x="572" y="292" font-family="'Cascadia Code','Consolas','SFMono-Regular',ui-monospace,monospace" font-size="14" font-weight="700" fill="#f1eaef" text-anchor="end">0</text>
<rect x="320" y="299" width="252" height="1" fill="#2f2636" stroke-dasharray="3 3"/>
<rect x="626" y="148" width="374" height="180" rx="16" fill="#15111a" stroke="#2f2636" stroke-width="1"/>
<text x="813" y="180" font-family="'Cascadia Code','Consolas','SFMono-Regular',ui-monospace,monospace" font-size="11" letter-spacing="2" fill="#a99fb0" text-anchor="middle">CURRENT STREAK</text>
<text class="flame" x="813" y="236" font-family="'Yu Mincho','Hiragino Mincho ProN','Zen Old Mincho','Songti SC',serif" font-size="58" fill="#e8a86a" text-anchor="middle">火</text>
<circle cx="813" cy="216" r="40" fill="none" stroke="#e8a86a" stroke-width="2" stroke-opacity="0.6"/>
<text x="813" y="286" font-family="'Cascadia Code','Consolas','SFMono-Regular',ui-monospace,monospace" font-size="30" font-weight="700" fill="#e8a86a" text-anchor="middle">5</text>
<text x="813" y="308" font-family="'Yu Gothic','Hiragino Kaku Gothic ProN','Zen Kaku Gothic New',system-ui,sans-serif" font-size="12" fill="#a99fb0" text-anchor="middle">days · longest 26</text>
<rect x="0" y="352" width="1000" height="150" rx="16" fill="#15111a" stroke="#2f2636" stroke-width="1"/>
<text x="34" y="388" font-family="'Yu Mincho','Hiragino Mincho ProN','Zen Old Mincho','Songti SC',serif" font-size="18" font-weight="600" fill="#f48fb1">Most Used Breathing — Top Languages</text>
<clipPath id="bar"><rect x="34" y="404" width="932" height="12" rx="6"/></clipPath>
<rect x="34.0" y="404" width="438.0" height="12" fill="#e34c26" clip-path="url(#bar)"/>
<rect x="472.0" y="404" width="242.3" height="12" fill="#f1e05a" clip-path="url(#bar)"/>
<rect x="714.4" y="404" width="149.1" height="12" fill="#663399" clip-path="url(#bar)"/>
<rect x="863.5" y="404" width="37.3" height="12" fill="#3178c6" clip-path="url(#bar)"/>
<rect x="900.8" y="404" width="28.0" height="12" fill="#f7523f" clip-path="url(#bar)"/>
<rect x="928.7" y="404" width="37.3" height="12" fill="#8fc07a" clip-path="url(#bar)"/>
<circle cx="39" cy="444" r="5.5" fill="#e34c26"/>
<text x="52" y="448" font-family="'Yu Gothic','Hiragino Kaku Gothic ProN','Zen Kaku Gothic New',system-ui,sans-serif" font-size="13" fill="#f1eaef">HTML</text>
<text x="334" y="448" font-family="'Cascadia Code','Consolas','SFMono-Regular',ui-monospace,monospace" font-size="12" fill="#a99fb0" text-anchor="end">47%</text>
<circle cx="369" cy="444" r="5.5" fill="#f1e05a"/>
<text x="382" y="448" font-family="'Yu Gothic','Hiragino Kaku Gothic ProN','Zen Kaku Gothic New',system-ui,sans-serif" font-size="13" fill="#f1eaef">JavaScript</text>
<text x="664" y="448" font-family="'Cascadia Code','Consolas','SFMono-Regular',ui-monospace,monospace" font-size="12" fill="#a99fb0" text-anchor="end">26%</text>
<circle cx="699" cy="444" r="5.5" fill="#663399"/>
<text x="712" y="448" font-family="'Yu Gothic','Hiragino Kaku Gothic ProN','Zen Kaku Gothic New',system-ui,sans-serif" font-size="13" fill="#f1eaef">CSS</text>
<text x="994" y="448" font-family="'Cascadia Code','Consolas','SFMono-Regular',ui-monospace,monospace" font-size="12" fill="#a99fb0" text-anchor="end">16%</text>
<circle cx="39" cy="470" r="5.5" fill="#3178c6"/>
<text x="52" y="474" font-family="'Yu Gothic','Hiragino Kaku Gothic ProN','Zen Kaku Gothic New',system-ui,sans-serif" font-size="13" fill="#f1eaef">TypeScript</text>
<text x="334" y="474" font-family="'Cascadia Code','Consolas','SFMono-Regular',ui-monospace,monospace" font-size="12" fill="#a99fb0" text-anchor="end">4%</text>
<circle cx="369" cy="470" r="5.5" fill="#f7523f"/>
<text x="382" y="474" font-family="'Yu Gothic','Hiragino Kaku Gothic ProN','Zen Kaku Gothic New',system-ui,sans-serif" font-size="13" fill="#f1eaef">Blade</text>
<text x="664" y="474" font-family="'Cascadia Code','Consolas','SFMono-Regular',ui-monospace,monospace" font-size="12" fill="#a99fb0" text-anchor="end">3%</text>
<circle cx="699" cy="470" r="5.5" fill="#8fc07a"/>
<text x="712" y="474" font-family="'Yu Gothic','Hiragino Kaku Gothic ProN','Zen Kaku Gothic New',system-ui,sans-serif" font-size="13" fill="#f1eaef">Other</text>
<text x="994" y="474" font-family="'Cascadia Code','Consolas','SFMono-Regular',ui-monospace,monospace" font-size="12" fill="#a99fb0" text-anchor="end">4%</text>
<rect x="0" y="526" width="1000" height="180" rx="16" fill="#15111a" stroke="#2f2636" stroke-width="1"/>
<text x="34" y="562" font-family="'Yu Mincho','Hiragino Mincho ProN','Zen Old Mincho','Songti SC',serif" font-size="18" font-weight="600" fill="#f48fb1">Contribution Activity</text>
<g transform="translate(40,556)"><path d="M 10.0 111.6 Q 10.0 111.6 33.7 112.8 T 57.4 114.0 Q 57.4 114.0 81.1 114.0 T 104.7 114.0 Q 104.7 114.0 128.4 115.4 T 152.1 116.8 Q 152.1 116.8 175.8 116.4 T 199.5 116.0 Q 199.5 116.0 223.2 115.5 T 246.8 114.9 Q 246.8 114.9 270.5 115.9 T 294.2 117.0 Q 294.2 117.0 317.9 118.8 T 341.6 120.5 Q 341.6 120.5 365.3 115.2 T 388.9 109.9 Q 388.9 109.9 412.6 95.9 T 436.3 82.0 Q 436.3 82.0 460.0 71.1 T 483.7 60.3 Q 483.7 60.3 507.4 55.1 T 531.1 49.8 Q 531.1 49.8 554.7 42.4 T 578.4 35.0 Q 578.4 35.0 602.1 39.1 T 625.8 43.1 Q 625.8 43.1 649.5 49.6 T 673.2 56.2 Q 673.2 56.2 696.8 63.8 T 720.5 71.3 Q 720.5 71.3 744.2 56.3 T 767.9 41.2 Q 767.9 41.2 791.6 45.7 T 815.3 50.2 Q 815.3 50.2 838.9 45.7 T 862.6 41.3 Q 862.6 41.3 886.3 39.8 T 910.0 38.3 L 910.0 140 L 10.0 140 Z" fill="url(#actFill)"/><path class="draw" d="M 10.0 111.6 Q 10.0 111.6 33.7 112.8 T 57.4 114.0 Q 57.4 114.0 81.1 114.0 T 104.7 114.0 Q 104.7 114.0 128.4 115.4 T 152.1 116.8 Q 152.1 116.8 175.8 116.4 T 199.5 116.0 Q 199.5 116.0 223.2 115.5 T 246.8 114.9 Q 246.8 114.9 270.5 115.9 T 294.2 117.0 Q 294.2 117.0 317.9 118.8 T 341.6 120.5 Q 341.6 120.5 365.3 115.2 T 388.9 109.9 Q 388.9 109.9 412.6 95.9 T 436.3 82.0 Q 436.3 82.0 460.0 71.1 T 483.7 60.3 Q 483.7 60.3 507.4 55.1 T 531.1 49.8 Q 531.1 49.8 554.7 42.4 T 578.4 35.0 Q 578.4 35.0 602.1 39.1 T 625.8 43.1 Q 625.8 43.1 649.5 49.6 T 673.2 56.2 Q 673.2 56.2 696.8 63.8 T 720.5 71.3 Q 720.5 71.3 744.2 56.3 T 767.9 41.2 Q 767.9 41.2 791.6 45.7 T 815.3 50.2 Q 815.3 50.2 838.9 45.7 T 862.6 41.3 Q 862.6 41.3 886.3 39.8 T 910.0 38.3" fill="none" stroke="url(#actLine)" stroke-width="2.5" stroke-linejoin="round" stroke-linecap="round"/></g>
</svg>